PathFileType	4	(X/Y/Z)	HSS_squat2.trc
DataRate	CameraRate	NumFrames	NumMarkers	Units	OrigDataRate	OrigDataStartFrame	OrigNumFrames
120.0	120.0	8	44	mm	120.0	1	970
Frame#	Time		R.Shoulder		Offset		L.Shoulder		R.Elbow		R.Wrist.Radial		R.Wrist		R.Hand		L.Elbow		L.Wrist.Radial		L.Wrist		L.Hand		R.Hip		V.Sacral		L.PSIS		L.Hip		R.Thigh.Upper		R.Thigh.Front		R.Thigh.Rear		X.Shell.Lower.Thigh.Right		R.Knee.Lateral		R.Shank.Upper		R.Shank.Front		R.Shank.Rear		X.Shell.Lower.Shank.Right		R.Ankle.Lateral		R.Heel		R.Toe		L.Thigh.Upper		L.Thigh.Front		L.Thigh.Rear		X.Shell.Lower.Thigh.Left		L.Knee.Lateral		L.Shank.Upper		L.Shank.Front		L.Shank.Rear		X.Shell.Lower.Shank.Left		L.Ankle.Lateral		L.Heel		L.Toe		R.Troc		L.Troc		R.PSIS		L.ASIS		R.ASIS
			X1	Y1	Z1	X2	Y2	Z2	X3	Y3	Z3	X4	Y4	Z4	X5	Y5	Z5	X6	Y6	Z6	X7	Y7	Z7	X8	Y8	Z8	X9	Y9	Z9	X10	Y10	Z10	X11	Y11	Z11	X12	Y12	Z12	X13	Y13	Z13	X14	Y14	Z14	X15	Y15	Z15	X16	Y16	Z16	X17	Y17	Z17	X18	Y18	Z18	X19	Y19	Z19	X20	Y20	Z20	X21	Y21	Z21	X22	Y22	Z22	X23	Y23	Z23	X24	Y24	Z24	X25	Y25	Z25	X26	Y26	Z26	X27	Y27	Z27	X28	Y28	Z28	X29	Y29	Z29	X30	Y30	Z30	X31	Y31	Z31	X32	Y32	Z32	X33	Y33	Z33	X34	Y34	Z34	X35	Y35	Z35	X36	Y36	Z36	X37	Y37	Z37	X38	Y38	Z38	X39	Y39	Z39	X40	Y40	Z40	X41	Y41	Z41	X42	Y42	Z42	X43	Y43	Z43	X44	Y44	Z44

1	0.00000	147.89293	1470.36389	-76.57220	-140.03125	1373.86743	32.73302	-200.07544	1487.12329	-86.32351	249.82744	1213.53589	-316.30554	nan	nan	nan	109.00651	1258.35596	-541.30072	32.42328	1270.77295	-581.80322	-301.56320	1242.99133	-337.81329	-148.74422	1272.58069	-546.36493	-98.08094	1244.41138	-504.08752	-65.64648	1263.19617	-580.44904	124.07376	1030.85730	-160.00897	-27.95107	1012.85852	-44.81139	-68.47705	1018.62518	-47.34871	-174.93150	1030.32178	-165.27328	178.01091	696.01581	-194.85918	165.22609	656.29486	-226.91713	189.39487	659.11292	-169.96445	174.67015	624.36188	-196.51039	170.66725	518.56342	-127.90941	232.18828	379.03781	-103.37635	214.52995	332.80389	-130.85268	222.28955	342.15225	-70.99596	219.22302	300.83456	-93.61417	190.79402	72.33075	-82.49436	143.21768	33.26945	-41.10039	200.14845	31.58609	-237.86635	-220.17569	695.16437	-206.07808	-202.17232	643.39374	-223.71031	-237.16576	661.40186	-174.65196	-227.97942	625.09454	-199.57042	-216.47658	510.18250	-126.87402	-275.30923	316.54932	-86.64693	-261.94452	290.72601	-114.70422	-264.57516	276.74329	-56.01222	-270.51608	246.18480	-78.35490	-241.16214	75.70201	-95.39597	-197.51715	34.78847	-41.57901	-241.22903	32.24121	-241.18140	162.26344	886.16443	-175.63712	-213.28336	898.36072	-171.83890	16.31875	1016.34241	-45.36925	-132.09705	998.28052	-233.68379	92.70316	996.91650	-224.91594
2	0.00833	147.84250	1470.37585	-76.56445	-140.05188	1373.85278	32.69942	-200.11559	1487.13098	-86.30077	250.14575	1213.81873	-316.38300	nan	nan	nan	108.92420	1258.87390	-541.30969	32.16236	1271.10913	-581.51459	-301.92090	1243.22632	-337.88226	-148.73625	1272.88330	-546.16614	-98.18320	1244.44690	-503.92398	-65.71272	1263.41907	-580.26105	124.05936	1030.88110	-160.04047	-27.97510	1012.88440	-44.82943	-68.47874	1018.62579	-47.38741	-174.94672	1030.31165	-165.30554	178.00983	696.02026	-194.90399	165.26294	656.31177	-226.98781	189.41258	659.12482	-170.01378	174.69083	624.37030	-196.57550	170.68826	518.56104	-127.96748	232.19582	379.02527	-103.46003	214.52629	332.79657	-130.92439	222.30811	342.16595	-71.05532	219.23235	300.84775	-93.66188	190.79445	72.32787	-82.48118	143.23528	33.25254	-41.07550	200.16679	31.63996	-237.83960	-220.20367	695.17548	-206.07918	-202.18452	643.36487	-223.73180	-237.18745	661.40735	-174.63559	-228.00331	625.08533	-199.57013	-216.46489	510.19678	-126.89989	-275.30939	316.52664	-86.65440	-261.95453	290.71655	-114.73116	-264.58780	276.75378	-56.01099	-270.52444	246.18527	-78.33671	-241.16328	75.70716	-95.37804	-197.49034	34.78653	-41.58154	-241.21312	32.25683	-241.20180	162.25299	886.17389	-175.65001	-213.30954	898.36328	-171.85501	16.32097	1016.34821	-45.38836	-132.12415	998.27557	-233.70853	92.66547	996.92902	-224.91808
3	0.01667	147.79829	1470.40869	-76.60288	-140.05719	1373.84802	32.68937	-200.15012	1487.13293	-86.31331	250.37029	1214.02881	-316.55893	nan	nan	nan	108.80477	1259.35608	-541.27539	31.93903	1271.49329	-581.19257	-302.22821	1243.39758	-337.88171	-148.74559	1273.08997	-545.74811	-98.27462	1244.53345	-503.81631	-65.74169	1263.70068	-579.95148	124.03372	1030.89807	-160.06096	-28.00513	1012.88721	-44.82685	-68.51202	1018.63708	-47.38597	-174.97766	1030.30457	-165.35497	178.01764	696.05280	-194.93750	165.27640	656.35638	-227.09665	189.42554	659.15240	-170.07066	174.72081	624.40491	-196.63887	170.71080	518.57935	-128.06429	232.21190	379.04233	-103.55579	214.54691	332.81805	-130.99837	222.32040	342.18408	-71.11701	219.24594	300.84854	-93.71270	190.84962	72.32093	-82.48168	143.26562	33.26825	-41.06772	200.19003	31.70629	-237.81718	-220.20729	695.17938	-206.11017	-202.21809	643.37683	-223.71790	-237.21815	661.41058	-174.62738	-228.04729	625.08472	-199.53621	-216.48299	510.18445	-126.91561	-275.32187	316.53998	-86.64499	-261.95688	290.71664	-114.72207	-264.59036	276.75311	-56.01534	-270.53354	246.17780	-78.34975	-241.15608	75.70303	-95.38765	-197.48071	34.79640	-41.60281	-241.21919	32.25193	-241.20457	162.24925	886.17694	-175.67111	-213.32906	898.35150	-171.86810	16.29802	1016.35718	-45.41303	-132.14061	998.25342	-233.75838	92.63237	996.94043	-224.97160
4	0.02500	147.73555	1470.41650	-76.62888	-140.09064	1373.85730	32.64379	-200.18774	1487.14514	-86.29935	250.62347	1214.32043	-316.59818	nan	nan	nan	108.66357	1259.96118	-541.16412	31.79729	1271.85388	-580.85626	-302.51627	1243.57043	-338.03214	-148.79152	1273.39990	-545.64862	-98.36830	1244.71716	-503.73248	-65.78400	1264.02600	-579.63757	124.02090	1030.90637	-160.06955	-28.00817	1012.88440	-44.91932	-68.53221	1018.63196	-47.40834	-174.98399	1030.30090	-165.39801	178.04353	696.06781	-194.99724	165.30411	656.37482	-227.12866	189.44223	659.18103	-170.16090	174.73566	624.42328	-196.69666	170.71075	518.58881	-128.14969	232.22487	379.03818	-103.59342	214.54990	332.78055	-131.03392	222.33144	342.19678	-71.14709	219.25557	300.84778	-93.77769	190.86652	72.34077	-82.44705	143.26508	33.26716	-41.07534	200.22879	31.74445	-237.78741	-220.24608	695.17102	-206.11310	-202.26698	643.38354	-223.75439	-237.23763	661.40375	-174.63277	-228.06764	625.09021	-199.54720	-216.47525	510.19290	-126.91861	-275.31778	316.54318	-86.66421	-261.96133	290.71689	-114.74928	-264.60184	276.75357	-56.01913	-270.53976	246.18661	-78.36674	-241.15720	75.71008	-95.38654	-197.48116	34.77379	-41.57609	-241.23128	32.26589	-241.20634	162.22768	886.21277	-175.71184	-213.34151	898.35553	-171.90277	16.27292	1016.34912	-45.45120	-132.14880	998.25195	-233.80391	92.60754	996.94263	-224.99980
5	0.03333	147.68517	1470.41919	-76.61585	-140.12410	1373.84705	32.65196	-200.21524	1487.13416	-86.29679	250.91351	1214.68677	-316.72617	nan	nan	nan	108.67849	1260.48230	-541.05359	31.58706	1272.24011	-580.53363	-302.87048	1243.76587	-338.11182	-148.81920	1273.71887	-545.54553	-98.53315	1244.88293	-503.55875	-65.81873	1264.30505	-579.33911	124.00602	1030.90979	-160.10013	-28.03629	1012.88824	-44.94754	-68.54585	1018.62714	-47.44873	-175.00316	1030.29578	-165.44778	178.06345	696.07202	-195.06433	165.31596	656.39062	-227.19215	189.46281	659.18591	-170.21306	174.75359	624.43219	-196.75423	170.71010	518.57544	-128.24643	232.23277	379.04672	-103.64658	214.58543	332.79120	-131.08467	222.34392	342.21091	-71.19633	219.27354	300.85178	-93.82755	190.87930	72.33899	-82.45750	143.27364	33.27056	-41.02266	200.23126	31.75085	-237.75447	-220.25932	695.15912	-206.12138	-202.28731	643.37793	-223.77654	-237.25110	661.40045	-174.64734	-228.09111	625.08246	-199.54414	-216.48996	510.18784	-126.92680	-275.32678	316.53235	-86.64980	-261.96634	290.71814	-114.75736	-264.62125	276.76099	-56.02864	-270.54608	246.17880	-78.37251	-241.14192	75.69196	-95.38119	-197.47957	34.79642	-41.57423	-241.22589	32.26176	-241.18378	162.22096	886.22260	-175.76071	-213.35768	898.32526	-171.95085	16.23854	1016.34723	-45.48591	-132.17303	998.25739	-233.85982	92.59345	996.94116	-225.05856
6	0.04167	147.61465	1470.43787	-76.66447	-140.15675	1373.83508	32.59538	-200.24438	1487.14539	-86.27388	251.18274	1215.03040	-316.95862	nan	nan	nan	108.58418	1261.01697	-541.01849	31.36228	1272.58484	-580.32092	-303.24625	1243.96423	-338.20511	-148.90308	1274.11169	-545.63593	-98.74056	1245.08899	-503.37576	-65.81878	1264.48169	-579.11578	123.99514	1030.89929	-160.16824	-28.03278	1012.88397	-45.06326	-68.54079	1018.61871	-47.52195	-175.01965	1030.30432	-165.51477	178.07716	696.07269	-195.10211	165.33405	656.39984	-227.29425	189.48994	659.22137	-170.31210	174.77774	624.43604	-196.81599	170.73663	518.59161	-128.31494	232.25267	379.03061	-103.68133	214.60712	332.76587	-131.11551	222.34753	342.21143	-71.22501	219.27460	300.84860	-93.84982	190.90027	72.32597	-82.44489	143.29921	33.26172	-41.03468	200.26859	31.80908	-237.72850	-220.28909	695.16345	-206.14323	-202.31438	643.36731	-223.77437	-237.26135	661.39709	-174.67940	-228.10901	625.06927	-199.54239	-216.48187	510.18439	-126.93640	-275.31998	316.53564	-86.68903	-261.97586	290.71887	-114.77951	-264.60483	276.76984	-56.06316	-270.53989	246.18288	-78.39381	-241.15326	75.68976	-95.37241	-197.47435	34.80621	-41.56625	-241.21793	32.24997	-241.20000	162.22702	886.24030	-175.77994	-213.38708	898.33087	-172.02692	16.20720	1016.35236	-45.57153	-132.14906	998.24860	-233.93294	92.58395	996.94720	-225.10062
7	0.05000	147.55792	1470.45410	-76.66019	-140.21472	1373.80884	32.55948	-200.26907	1487.13220	-86.27346	251.44211	1215.37769	-317.12308	nan	nan	nan	108.53520	1261.62219	-540.95703	31.23808	1272.99316	-580.02576	-303.61588	1244.24304	-338.35291	-148.93977	1274.40039	-545.49365	-99.05355	1245.26709	-503.07458	-65.80680	1264.65601	-578.85510	123.98586	1030.90198	-160.20732	-28.05456	1012.89240	-45.17244	-68.56176	1018.61041	-47.59790	-175.02565	1030.29602	-165.58182	178.10902	696.09589	-195.15997	165.38681	656.43524	-227.37172	189.51521	659.22064	-170.36264	174.80333	624.45929	-196.91112	170.73761	518.57898	-128.40144	232.24495	379.04352	-103.74335	214.62874	332.77075	-131.16142	222.35326	342.21823	-71.26586	219.27690	300.86450	-93.88827	190.90352	72.33640	-82.42075	143.30783	33.26975	-41.02367	200.29028	31.81759	-237.68356	-220.31429	695.15216	-206.17368	-202.31204	643.35193	-223.79610	-237.27928	661.41919	-174.69299	-228.11874	625.05975	-199.57431	-216.48145	510.19424	-126.96087	-275.31287	316.53046	-86.71391	-261.96820	290.71133	-114.79694	-264.61404	276.77277	-56.08707	-270.54150	246.18413	-78.40945	-241.12900	75.68590	-95.37983	-197.48370	34.81537	-41.57592	-241.20853	32.24270	-241.20665	162.22409	886.23895	-175.83968	-213.40945	898.32086	-172.09915	16.18088	1016.34003	-45.63130	-132.17960	998.25641	-234.00227	92.56252	996.94824	-225.14626
8	0.05833	147.49150	1470.45752	-76.65791	-140.27171	1373.78064	32.50246	-200.30020	1487.13574	-86.25938	251.74236	1215.61670	-317.32874	nan	nan	nan	108.53207	1262.30762	-540.92975	31.07391	1273.40698	-579.72614	-303.97559	1244.53320	-338.45404	-148.96999	1274.61914	-545.34851	-99.32278	1245.37073	-502.77945	-65.76869	1264.95325	-578.60577	123.97419	1030.88708	-160.22664	-28.07224	1012.87274	-45.29685	-68.59121	1018.59058	-47.65866	-175.04326	1030.26819	-165.62500	178.11476	696.08368	-195.21544	165.42192	656.44769	-227.41072	189.52258	659.23383	-170.42979	174.83368	624.44720	-196.91730	170.71986	518.58984	-128.49310	232.23898	379.05530	-103.78388	214.60471	332.75766	-131.22983	222.35066	342.22046	-71.30125	219.28789	300.85696	-93.92299	190.91153	72.31680	-82.42381	143.31107	33.27493	-41.02346	200.31830	31.84085	-237.70114	-220.32867	695.15320	-206.21501	-202.32675	643.34332	-223.83502	-237.28699	661.40485	-174.72092	-228.13902	625.05408	-199.61032	-216.48909	510.18954	-126.97588	-275.34906	316.53955	-86.72354	-261.98932	290.70435	-114.83050	-264.62811	276.77032	-56.07918	-270.56033	246.18277	-78.41570	-241.13869	75.68957	-95.39716	-197.46602	34.79213	-41.57671	-241.20337	32.22236	-241.19841	162.21300	886.22852	-175.88184	-213.42328	898.32623	-172.21651	16.15250	1016.33289	-45.73369	-132.18341	998.25305	-234.07861	92.57292	996.93524	-225.20366
